<?xml version="1.0" standalone="no"?>
<!DOCTYPE svg PUBLIC "-//W3C//DTD SVG 1.1//EN" "http://www.w3.org/Graphics/SVG/1.1/DTD/svg11.dtd" >
<svg xmlns="http://www.w3.org/2000/svg" xmlns:xlink="http://www.w3.org/1999/xlink" version="1.1">
<metadata>
Created by FontForge 20150824 at Fri Sep 23 03:23:20 2016
 By Everything Fonts
Copyright (c) 2012 by Fontfabric LLC. All rights reserved.
</metadata>
<defs>
<font id="IntroRegular" horiz-adv-x="712" >
  <font-face 
    font-family="IntroRegular"
    font-weight="400"
    font-stretch="normal"
    units-per-em="1000"
    panose-1="2 0 0 0 0 0 0 0 0 0"
    ascent="750"
    descent="-250"
    x-height="700"
    cap-height="700"
    bbox="-24 -248.787 1069 949"
    underline-thickness="50"
    underline-position="-150"
    unicode-range="U+0020-2026"
  />
<missing-glyph horiz-adv-x="275" 
 />
    <glyph glyph-name=".notdef" horiz-adv-x="275" 
 />
    <glyph glyph-name=".null" horiz-adv-x="0" 
 />
    <glyph glyph-name="nonmarkingreturn" horiz-adv-x="333" 
 />
    <glyph glyph-name="space" unicode=" " horiz-adv-x="275" 
 />
    <glyph glyph-name="exclam" unicode="!" horiz-adv-x="353" 
d="M179 5q-42 0 -70 25t-28 66t28 66.5t70 25.5t70 -25.5t28 -66.5t-28 -66t-70 -25zM92 214l-15 501h200l-11 -501h-174z" />
    <glyph glyph-name="ampersand" unicode="&#x26;" horiz-adv-x="650" 
d="M534 524h-158q0 40 -58 40q-36 0 -51.5 -26.5t0 -53t53.5 -26.5h30v-146h-32q-42 0 -66.5 -27t-24.5 -59.5t24.5 -59.5t66.5 -27q40 0 65.5 24t25.5 65v233h218v-155h-62v-78q0 -116 -65.5 -178t-181.5 -62q-102 0 -171 47t-89.5 112t0 135t81.5 114q-37 41 -44.5 96
t13 103.5t76 82.5t134.5 34q97 0 158.5 -48t57.5 -140z" />
    <glyph glyph-name="comma" unicode="," horiz-adv-x="284" 
d="M236 78q0 -12 -7 -37l-44 -130h-101l25 79q-32 8 -51.5 31t-19.5 57q0 41 28.5 67t69.5 26q43 0 71.5 -26t28.5 -67z" />
    <glyph glyph-name="period" unicode="." horiz-adv-x="284" 
d="M140 -6q-43 0 -71.5 25t-28.5 66t28.5 67t71.5 26q41 0 69.5 -26t28.5 -67q0 -40 -28.5 -65.5t-69.5 -25.5z" />
    <glyph glyph-name="zero" unicode="0" horiz-adv-x="680" 
d="M338 713q113 0 188 -65t75 -176v-245q0 -111 -75 -176t-188 -65q-111 0 -186 65t-75 176v245q0 111 75 176t186 65zM338 145q41 0 67.5 22.5t26.5 63.5v238q0 40 -26.5 62t-67.5 22q-40 0 -65.5 -22t-25.5 -62v-238q0 -41 25.5 -63.5t65.5 -22.5z" />
    <glyph glyph-name="one" unicode="1" horiz-adv-x="428" 
d="M126 555h-95v145h269v-554h106v-146h-384v146h104v409z" />
    <glyph glyph-name="two" unicode="2" horiz-adv-x="548" 
d="M288 412q20 26 29.5 57t-2.5 56.5t-53 25.5q-69 0 -69 -68h-152q-1 108 62 167t162 61q73 2 128 -31t79.5 -84t20 -116t-42.5 -124l-141 -196h208v-160h-492v27z" />
    <glyph glyph-name="three" unicode="3" horiz-adv-x="570" 
d="M41 214h157q2 -69 79 -69q36 0 56 23.5t21 60.5q0 36 -17 58t-43 28t-57.5 8.5t-59.5 -0.5v24l93 194h-202v159h445v-26l-129 -236q143 -36 143 -208q1 -97 -65 -170.5t-181 -73.5q-71 0 -125 30q-52 29 -83.5 81t-31.5 117z" />
    <glyph glyph-name="four" unicode="4" horiz-adv-x="576" 
d="M492 133v-133h-166v133h-305v78l279 489h192v-421h60v-146h-60zM344 491l-123 -212h112v105l13 107h-2z" />
    <glyph glyph-name="five" unicode="5" horiz-adv-x="578" 
d="M213 548v-87q53 3 96.5 0t86.5 -17t72.5 -39.5t48 -70t18.5 -104.5q1 -97 -65 -170.5t-181 -73.5q-101 0 -166.5 61.5t-69.5 166.5h154q2 -70 78 -70q78 0 80 86q-3 58 -63 75q-32 9 -75 10.5t-100 -2t-62 -3.5v390h436v-152h-288z" />
    <glyph glyph-name="six" unicode="6" horiz-adv-x="617" 
d="M279 706h199l-148 -252q111 8 178.5 -53.5t67.5 -170.5q0 -118 -74.5 -179.5t-192.5 -61.5q-119 0 -194 61.5t-75 179.5q0 81 37 137zM309 141q41 0 64 25t23 64q0 38 -22.5 63t-64.5 25q-43 0 -66.5 -25.5t-23.5 -62.5q0 -39 25 -64t65 -25z" />
    <glyph glyph-name="seven" unicode="7" horiz-adv-x="537" 
d="M532 700v-27l-283 -673h-184l231 540h-275v160h511z" />
    <glyph glyph-name="eight" unicode="8" horiz-adv-x="605" 
d="M480 398q40 -30 63.5 -72.5t27.5 -87.5t-11.5 -90t-47.5 -80.5t-86.5 -57.5t-122.5 -22q-102 0 -170.5 47.5t-88.5 113t0.5 136t81.5 114.5q-38 41 -45.5 95.5t13 102.5t76 81.5t133.5 33.5t133 -33.5t75.5 -82t13 -103t-44.5 -95.5zM303 139q43 0 67.5 27t24.5 60
t-24.5 60t-67.5 27t-67 -27t-24 -60t24 -60t67 -27zM303 459q41 0 57.5 28t0 56t-57.5 28t-58 -28t0 -56t58 -28z" />
    <glyph glyph-name="nine" unicode="9" horiz-adv-x="609" 
d="M329 -7h-199l149 253q-109 -8 -176.5 57t-67.5 167q0 119 72.5 179.5t193.5 60.5t195 -60.5t74 -179.5q0 -84 -37 -138zM301 557q-39 0 -63.5 -25t-24.5 -62q0 -39 24.5 -63.5t63.5 -24.5q43 0 65.5 23.5t22.5 64.5q0 38 -24 62.5t-64 24.5z" />
    <glyph glyph-name="colon" unicode=":" horiz-adv-x="310" 
d="M151 -6q-43 0 -71.5 25t-28.5 66t28.5 67t71.5 26q41 0 69.5 -26t28.5 -67q0 -40 -28.5 -65.5t-69.5 -25.5zM151 318q-43 0 -71.5 25t-28.5 66t28.5 67t71.5 26q41 0 69.5 -26t28.5 -67q0 -40 -28.5 -65.5t-69.5 -25.5z" />
    <glyph glyph-name="semicolon" unicode=";" horiz-adv-x="299" 
d="M144 318q-43 0 -71.5 25t-28.5 66t28.5 67t71.5 26q41 0 69.5 -26t28.5 -67q0 -40 -28.5 -65.5t-69.5 -25.5zM242 84q0 -12 -7 -37l-44 -130h-101l25 79q-32 8 -51.5 31t-19.5 57q0 41 28.5 67t69.5 26q43 0 71.5 -26t28.5 -67z" />
    <glyph glyph-name="question" unicode="?" horiz-adv-x="550" 
d="M190 214q-5 44 7.5 80t34 61t44 47.5t40 50t19.5 58.5q1 26 -20 41t-48 15q-29 -1 -48.5 -18t-19.5 -51h-151q-2 109 61.5 167t162.5 60q106 3 170.5 -58t64.5 -152q0 -41 -15 -76t-36.5 -60t-42.5 -49t-34.5 -53.5t-11.5 -62.5h-177zM278 5q-41 0 -69.5 25.5t-28.5 65.5
q0 41 28 66.5t70 25.5t70.5 -25.5t28.5 -66.5q0 -40 -28.5 -65.5t-70.5 -25.5z" />
    <glyph glyph-name="at" unicode="@" horiz-adv-x="862" 
d="M684 165l3 -13q47 73 47 158q0 125 -89.5 214.5t-214.5 89.5t-214 -89.5t-89 -214.5q0 -126 89 -214.5t214 -88.5q90 0 168 51q58 -32 101 -36q-57 -61 -117.5 -84.5t-151.5 -23.5q-166 0 -280 115.5t-114 280.5q0 164 115.5 279.5t278.5 115.5q164 0 279.5 -115.5
t115.5 -279.5q0 -74 -25 -143.5t-75 -113.5q-94 4 -167 82.5t-71 171.5q1 24 -16.5 42t-40.5 18q-24 0 -41.5 -17.5t-16.5 -41.5q0 -22 17.5 -39.5t40.5 -17.5q22 0 42 20q9 -99 95 -174q-62 -39 -137 -39q-103 0 -178 74t-75 178t74 178.5t179 74.5t179.5 -74.5
t74.5 -178.5v-145z" />
    <glyph glyph-name="A" unicode="A" 
d="M534 0l-41 88h-276l-41 -88h-175v26l315 683h77l316 -683v-26h-175zM435 241l-81 184l-79 -184h160z" />
    <glyph glyph-name="B" unicode="B" horiz-adv-x="686" 
d="M606 485q0 -32 -15 -66t-40 -55q84 -43 84 -143q-1 -96 -58 -158.5t-160 -62.5h-328v700h299q91 0 154.5 -62.5t63.5 -152.5zM404 278h-142v-119h143q34 0 47.5 29.5t-0.5 59.5t-48 30zM374 540h-112v-113h113q34 0 47.5 28.5t-0.5 56.5t-48 28z" />
    <glyph glyph-name="C" unicode="C" horiz-adv-x="786" 
d="M47 350q0 86 31 156t82.5 113t114.5 66t131 23q120 0 215 -67.5t114 -198.5h-176q-36 103 -153 103q-78 0 -126 -54t-48 -141q0 -80 48.5 -136.5t125.5 -57.5q59 0 100.5 29t55.5 84h176q-12 -94 -64.5 -158.5t-120.5 -91t-147 -26.5q-68 0 -131 22.5t-114.5 65.5
t-82.5 113t-31 156z" />
    <glyph glyph-name="D" unicode="D" horiz-adv-x="742" 
d="M353 700q109 0 189 -52t116 -130t36 -168t-36 -168t-116 -130t-189 -52h-264v700h264zM268 537v-374h85q53 0 92.5 27.5t57 69.5t17.5 90t-17.5 90t-57 69.5t-92.5 27.5h-85z" />
    <glyph glyph-name="E" unicode="E" horiz-adv-x="600" 
d="M526 700v-160h-259v-99h238v-159h-238v-123h268v-159h-446v700h437z" />
    <glyph glyph-name="F" unicode="F" horiz-adv-x="574" 
d="M496 227h-225v-227h-182v700h436v-160h-254v-153h225v-160z" />
    <glyph glyph-name="G" unicode="G" horiz-adv-x="790" 
d="M46 350q0 86 31 156t82.5 113.5t114.5 66.5t131 23q74 -1 138.5 -25.5t116 -82t67.5 -140.5h-176q-41 84 -146 84q-82 0 -128 -55.5t-46 -139.5q0 -87 47.5 -139.5t126.5 -52.5q57 0 92 19t58 67h-149v155h331q7 -128 -20 -205q-35 -103 -120.5 -152.5t-191.5 -49.5
q-92 0 -172 38.5t-133.5 122t-53.5 197.5z" />
    <glyph glyph-name="H" unicode="H" horiz-adv-x="762" 
d="M672 700v-700h-183v281h-216v-281h-183v700h183v-254h216v254h183z" />
    <glyph glyph-name="I" unicode="I" horiz-adv-x="414" 
d="M297 157h89v-157h-355v157h89v387h-82v156h341v-156h-82v-387z" />
    <glyph glyph-name="J" unicode="J" horiz-adv-x="662" 
d="M578 700v-467q0 -111 -78.5 -176t-191.5 -65q-112 0 -187 65t-75 176v91h169v-88q0 -40 26 -62t67 -22q40 0 63.5 21.5t23.5 62.5v305h-102v159h285z" />
    <glyph glyph-name="K" unicode="K" horiz-adv-x="708" 
d="M272 0h-182v700h182v-265h13q36 0 63.5 8t45 18.5t30 32.5t18.5 37.5t9 47.5t3.5 49t0.5 54v18h184q0 -138 -13 -194q-26 -109 -122 -170l190 -308v-28h-199l-154 271q-24 -4 -69 -4v-267z" />
    <glyph glyph-name="L" unicode="L" horiz-adv-x="556" 
d="M268 700v-539h254v-161h-434v700h180z" />
    <glyph glyph-name="M" unicode="M" horiz-adv-x="860" 
d="M428 398l279 304h64v-702h-183v312l-149 -156h-20l-148 156v-312h-183v702h66z" />
    <glyph glyph-name="N" unicode="N" horiz-adv-x="780" 
d="M627 -1l-353 345v-344h-185v703h65l354 -346v343h183v-701h-64z" />
    <glyph glyph-name="O" unicode="O" horiz-adv-x="810" 
d="M764 349q0 -88 -31 -159t-81.5 -114.5t-115 -67t-131.5 -23.5t-131.5 23.5t-115 67t-81.5 114.5t-31 159t31 158.5t81.5 114t115 67t131.5 23.5t131.5 -23.5t115 -67t81.5 -114t31 -158.5zM230 349q0 -61 26 -105.5t65 -64.5t84.5 -20t84.5 20t65 64.5t26 105.5
q0 60 -26 104.5t-65 64t-84.5 19.5t-84.5 -19.5t-65 -64t-26 -104.5z" />
    <glyph glyph-name="P" unicode="P" horiz-adv-x="694" 
d="M268 0h-179v700h308q54 0 99 -18t74.5 -48t50 -69.5t25 -82.5t0 -86t-25 -82t-50 -69t-74.5 -48t-99 -18h-129v-179zM396 340q28 0 47.5 20.5t24.5 50t1 58.5t-23.5 50t-49.5 21h-40.5h-48h-39.5v-200h128z" />
    <glyph glyph-name="Q" unicode="Q" horiz-adv-x="814" 
d="M781 0h-182l-17 32q-53 -28 -113.5 -38t-119.5 -2t-114 35.5t-96.5 70.5t-66.5 108t-25 143q0 88 31 158.5t81.5 114t115 67t131.5 23.5t131.5 -23.5t115 -67t81.5 -114t31 -158.5q0 -119 -56 -207l72 -119v-23zM231 349q0 -46 15 -83t39.5 -60t56 -35.5t64.5 -12.5
t64.5 12.5t56 35.5t39.5 60t15 83q0 52 -19.5 92.5t-50 61.5t-68 31t-75 0t-68 -31t-50 -61.5t-19.5 -92.5z" />
    <glyph glyph-name="R" unicode="R" horiz-adv-x="699" 
d="M543 248l137 -222v-26h-200l-120 206h-93v-206h-179v700h307q66 0 118.5 -25.5t82 -65.5t42.5 -90.5t6.5 -100t-32.5 -95.5t-69 -75zM395 365q28 0 47 18t24 43.5t1 51t-23.5 44t-48.5 18.5h-40.5h-47.5h-40v-175h128z" />
    <glyph glyph-name="S" unicode="S" horiz-adv-x="648" 
d="M213 214q0 -25 22.5 -42.5t54.5 -22t64.5 -1.5t55 19t22.5 39q0 34 -33.5 47t-94.5 17q-123 9 -188 58t-66 157q-2 86 53 145t134 72.5t158.5 0t134.5 -72.5t54 -145h-170q0 33 -29.5 50.5t-65 17t-66.5 -18t-33 -47.5q-3 -36 25.5 -50.5t85.5 -20.5q52 -6 83.5 -11
t72.5 -19.5t63.5 -35t39 -57.5t16.5 -88q0 -47 -19.5 -87t-52.5 -66t-75.5 -44t-90 -21.5t-94.5 0.5t-89.5 22.5t-75 45t-51.5 68t-18 91.5h173z" />
    <glyph glyph-name="T" unicode="T" horiz-adv-x="562" 
d="M192 540h-172v160h520v-160h-171v-540h-177v540z" />
    <glyph glyph-name="U" unicode="U" horiz-adv-x="722" 
d="M360 151q43 0 74.5 22.5t31.5 62.5v464h171v-467q0 -111 -81.5 -177t-195.5 -66q-113 0 -195.5 66t-82.5 177v467h171v-464q0 -40 32 -62.5t75 -22.5z" />
    <glyph glyph-name="V" unicode="V" horiz-adv-x="702" 
d="M186 700l164 -396h5l160 396h172v-27l-297 -681h-76l-300 681v27h172z" />
    <glyph glyph-name="W" unicode="W" horiz-adv-x="949" 
d="M437 689h76l119 -372h3l31 119l89 264h178v-27l-243 -680h-103l-112 337h-3l-112 -337h-99l-246 680v27h181l90 -264l31 -119h3z" />
    <glyph glyph-name="X" unicode="X" horiz-adv-x="673" 
d="M339 220h-6l-134 -220h-187v27l226 344l-202 302v27h183l114 -182h5l117 182h180v-27l-202 -302l227 -344v-27h-188z" />
    <glyph glyph-name="Y" unicode="Y" horiz-adv-x="665" 
d="M421 294v-294h-177v294l-235 379v27h193l127 -233h7l127 233h194v-27z" />
    <glyph glyph-name="Z" unicode="Z" horiz-adv-x="611" 
d="M579 700v-27l-287 -513h290v-160h-559v27l286 513h-260v160h530z" />
    <glyph glyph-name="grave" unicode="`" horiz-adv-x="349" 
d="M289 566h-125l-103 117v15l152 51l76 -167v-16z" />
    <glyph glyph-name="a" unicode="a" 
d="M534 0l-41 88h-276l-41 -88h-175v26l315 683h77l316 -683v-26h-175zM434 242l-80 184l-78 -184h158z" />
    <glyph glyph-name="b" unicode="b" horiz-adv-x="686" 
d="M606 485q0 -32 -15 -66t-40 -55q84 -43 84 -143q-1 -96 -58 -158.5t-160 -62.5h-328v700h299q91 0 154.5 -62.5t63.5 -152.5zM404 278h-142v-119h143q34 0 47.5 29.5t-0.5 59.5t-48 30zM374 540h-112v-115h113q20 0 34 12t17 29t0 33.5t-17 28.5t-35 12z" />
    <glyph glyph-name="c" unicode="c" horiz-adv-x="786" 
d="M47 350q0 86 31 156t82.5 113t114.5 66t131 23q120 0 215 -67.5t114 -198.5h-176q-36 103 -153 103q-78 0 -126 -54t-48 -141q0 -80 48.5 -136.5t125.5 -57.5q59 0 100.5 29t55.5 84h176q-12 -94 -64.5 -158.5t-120.5 -91t-147 -26.5q-68 0 -131 22.5t-114.5 65.5
t-82.5 113t-31 156z" />
    <glyph glyph-name="d" unicode="d" horiz-adv-x="742" 
d="M353 700q109 0 189 -52t116 -130t36 -168t-36 -168t-116 -130t-189 -52h-264v700h264zM268 537v-374h85q53 0 92.5 27.5t57 69.5t17.5 90t-17.5 90t-57 69.5t-92.5 27.5h-85z" />
    <glyph glyph-name="e" unicode="e" horiz-adv-x="600" 
d="M526 700v-160h-259v-99h238v-159h-238v-123h268v-159h-446v700h437z" />
    <glyph glyph-name="f" unicode="f" horiz-adv-x="574" 
d="M496 227h-225v-227h-182v700h436v-160h-254v-153h225v-160z" />
    <glyph glyph-name="g" unicode="g" horiz-adv-x="790" 
d="M46 350q0 86 31 156t82.5 113.5t114.5 66.5t131 23q74 -1 138.5 -25.5t116 -82t67.5 -140.5h-176q-41 84 -146 84q-82 0 -128 -55.5t-46 -139.5q0 -87 47.5 -139.5t126.5 -52.5q57 0 92 19t58 67h-149v155h331q7 -128 -20 -205q-35 -103 -120.5 -152.5t-191.5 -49.5
q-92 0 -172 38.5t-133.5 122t-53.5 197.5z" />
    <glyph glyph-name="h" unicode="h" horiz-adv-x="762" 
d="M672 700v-700h-183v281h-216v-281h-183v700h183v-254h216v254h183z" />
    <glyph glyph-name="i" unicode="i" horiz-adv-x="414" 
d="M297 157h89v-157h-355v157h89v387h-82v156h341v-156h-82v-387z" />
    <glyph glyph-name="j" unicode="j" horiz-adv-x="662" 
d="M578 700v-467q0 -111 -78.5 -176t-191.5 -65q-112 0 -187 65t-75 176v91h169v-88q0 -40 26 -62t67 -22q40 0 63.5 21.5t23.5 62.5v305h-102v159h285z" />
    <glyph glyph-name="k" unicode="k" horiz-adv-x="708" 
d="M272 0h-182v700h182v-265h13q36 0 63.5 8t45 18.5t30 32.5t18.5 37.5t9 47.5t3.5 49t0.5 54v18h184q0 -138 -13 -194q-26 -109 -122 -170l190 -308v-28h-199l-154 271q-24 -4 -69 -4v-267z" />
    <glyph glyph-name="l" unicode="l" horiz-adv-x="556" 
d="M268 700v-539h254v-161h-434v700h180z" />
    <glyph glyph-name="m" unicode="m" horiz-adv-x="860" 
d="M428 398l279 304h64v-702h-183v312l-149 -156h-20l-148 156v-312h-183v702h66z" />
    <glyph glyph-name="n" unicode="n" horiz-adv-x="780" 
d="M627 -1l-353 345v-344h-185v703h65l354 -346v343h183v-701h-64z" />
    <glyph glyph-name="o" unicode="o" horiz-adv-x="810" 
d="M764 349q0 -88 -31 -159t-81.5 -114.5t-115 -67t-131.5 -23.5t-131.5 23.5t-115 67t-81.5 114.5t-31 159t31 158.5t81.5 114t115 67t131.5 23.5t131.5 -23.5t115 -67t81.5 -114t31 -158.5zM230 349q0 -61 26 -105.5t65 -64.5t84.5 -20t84.5 20t65 64.5t26 105.5
q0 60 -26 104.5t-65 64t-84.5 19.5t-84.5 -19.5t-65 -64t-26 -104.5z" />
    <glyph glyph-name="p" unicode="p" horiz-adv-x="694" 
d="M268 0h-179v700h308q54 0 99 -18t74.5 -48t50 -69.5t25 -82.5t0 -86t-25 -82t-50 -69t-74.5 -48t-99 -18h-129v-179zM396 340q28 0 47.5 20.5t24.5 50t1 58.5t-23.5 50t-49.5 21h-40.5h-48h-39.5v-200h128z" />
    <glyph glyph-name="q" unicode="q" horiz-adv-x="814" 
d="M781 0h-182l-17 32q-53 -28 -113.5 -38t-119.5 -2t-114 35.5t-96.5 70.5t-66.5 108t-25 143q0 88 31 158.5t81.5 114t115 67t131.5 23.5t131.5 -23.5t115 -67t81.5 -114t31 -158.5q0 -119 -56 -207l72 -119v-23zM231 349q0 -46 15 -83t39.5 -60t56 -35.5t64.5 -12.5
t64.5 12.5t56 35.5t39.5 60t15 83q0 52 -19.5 92.5t-50 61.5t-68 31t-75 0t-68 -31t-50 -61.5t-19.5 -92.5z" />
    <glyph glyph-name="r" unicode="r" horiz-adv-x="699" 
d="M543 248l137 -222v-26h-200l-120 206h-93v-206h-179v700h307q66 0 118.5 -25.5t82 -65.5t42.5 -90.5t6.5 -100t-32.5 -95.5t-69 -75zM395 367q28 0 47 17.5t24 43t1 51t-23.5 43.5t-48.5 18h-40.5h-47.5h-40v-173h128z" />
    <glyph glyph-name="s" unicode="s" horiz-adv-x="648" 
d="M213 214q0 -25 22.5 -42.5t54.5 -21.5t64.5 -0.5t55 20t22.5 39.5q0 18 -9.5 29.5t-29 18t-39 9t-50.5 4.5q-123 9 -188 58t-66 157q-2 86 53 145t134 72.5t158.5 0t134.5 -72.5t54 -145h-170q0 33 -29.5 50.5t-65 17t-66.5 -18t-33 -47.5q-3 -36 25.5 -50.5t85.5 -20.5
q38 -4 60 -7t55 -10t52.5 -16t42.5 -24.5t35.5 -35.5t21 -49t8.5 -66q0 -61 -31.5 -108.5t-81.5 -72.5t-111 -37t-121.5 -0.5t-110 37t-80.5 75t-30 112.5h173z" />
    <glyph glyph-name="t" unicode="t" horiz-adv-x="562" 
d="M192 540h-172v160h520v-160h-171v-540h-177v540z" />
    <glyph glyph-name="u" unicode="u" horiz-adv-x="722" 
d="M360 151q43 0 74.5 22.5t31.5 62.5v464h173v-467q0 -111 -82.5 -177t-196.5 -66q-113 0 -195.5 66t-82.5 177v467h171v-464q0 -40 32 -62.5t75 -22.5z" />
    <glyph glyph-name="v" unicode="v" horiz-adv-x="702" 
d="M186 700l164 -397h5l160 397h172v-27l-297 -681h-76l-300 681v27h172z" />
    <glyph glyph-name="w" unicode="w" horiz-adv-x="949" 
d="M437 689h76l119 -372h3l31 119l89 264h178v-27l-243 -680h-103l-112 337h-3l-112 -337h-99l-246 680v27h181l90 -264l31 -119h3z" />
    <glyph glyph-name="x" unicode="x" horiz-adv-x="673" 
d="M339 220h-6l-128 -220h-193v27l226 344l-202 302v27h186l111 -182h5l112 182h185v-27l-202 -302l227 -344v-27h-193z" />
    <glyph glyph-name="y" unicode="y" horiz-adv-x="665" 
d="M421 294v-294h-177v294l-235 379v27h193l127 -233h7l127 233h194v-27z" />
    <glyph glyph-name="z" unicode="z" horiz-adv-x="611" 
d="M579 700v-27l-287 -513h290v-160h-559v27l286 513h-260v160h530z" />
    <glyph glyph-name="exclamdown" unicode="&#xa1;" horiz-adv-x="353" 
d="M175 513q42 0 70 -25t28 -66t-28 -66.5t-70 -25.5t-70 25.5t-28 66.5t28 66t70 25zM262 304l15 -501h-200l11 501h174z" />
    <glyph glyph-name="dieresis" unicode="&#xa8;" horiz-adv-x="602" 
d="M164 567q-42 0 -70.5 25.5t-28.5 65.5q0 42 28.5 67t70.5 25q43 0 71.5 -25t28.5 -67q0 -40 -29 -65.5t-71 -25.5zM429 567q-42 0 -70.5 25.5t-28.5 65.5q0 42 28.5 67t70.5 25q43 0 71 -25t28 -67q0 -41 -28 -66t-71 -25z" />
    <glyph glyph-name="acute" unicode="&#xb4;" horiz-adv-x="336" 
d="M183 566h-125v16l76 167l152 -51v-15z" />
    <glyph glyph-name="cedilla" unicode="&#xb8;" horiz-adv-x="347" 
d="M127 15l112 -4l-15 -66q46 -7 62.5 -44t-1.5 -76q-17 -42 -58.5 -60t-87 -12.5t-81.5 28.5l8 93q16 -14 46.5 -13t36.5 20q5 19 -10.5 27t-37.5 8z" />
    <glyph glyph-name="questiondown" unicode="&#xbf;" horiz-adv-x="543" 
d="M355 311q5 -44 -7.5 -80t-34 -61t-44 -47.5t-40 -50t-19.5 -58.5q-1 -26 20 -41t48 -15q29 1 48.5 18t19.5 51h151q2 -109 -61.5 -167t-162.5 -60q-106 -3 -170.5 58t-64.5 152q0 41 15 76t36.5 60t42.5 49t34.5 53.5t11.5 62.5h177zM267 520q41 0 69.5 -25.5t28.5 -65.5
q0 -41 -28 -66.5t-70 -25.5t-70.5 25.5t-28.5 66.5q0 40 28.5 65.5t70.5 25.5z" />
    <glyph glyph-name="Agrave" unicode="&#xc0;" 
d="M534 0l-41 88h-276l-41 -88h-175v26l315 683h77l316 -683v-26h-175zM435 241l-81 184l-79 -184h160zM427 753h-125l-103 117v15l152 51l76 -167v-16z" />
    <glyph glyph-name="Aacute" unicode="&#xc1;" 
d="M534 0l-41 88h-276l-41 -88h-175v26l315 683h77l316 -683v-26h-175zM435 241l-81 184l-79 -184h160zM404 751h-125v16l76 167l152 -51v-15z" />
    <glyph glyph-name="Acircumflex" unicode="&#xc2;" 
d="M534 0l-41 88h-276l-41 -88h-175v26l315 683h77l316 -683v-26h-175zM435 241l-81 184l-79 -184h160zM551 746h-133l-65 76l-61 -76h-136v16l106 143h182l107 -143v-16z" />
    <glyph glyph-name="Atilde" unicode="&#xc3;" 
d="M534 0l-41 88h-276l-41 -88h-175v26l315 683h77l316 -683v-26h-175zM435 241l-81 184l-79 -184h160zM229 759q-37 14 -86 36q27 81 80 109.5t129 -1.5q2 -1 10.5 -4.5t12.5 -4.5t12.5 -4t13 -3.5t12 -1t12 1.5t9.5 5t9 9t6 14q10 -4 28.5 -12t33.5 -14.5t28 -12.5
q-16 -74 -71.5 -107.5t-122.5 -6.5q-3 1 -17 7.5t-22 9.5t-22 6t-23 1.5t-18 -8t-14 -19.5z" />
    <glyph glyph-name="Adieresis" unicode="&#xc4;" 
d="M534 0l-41 88h-276l-41 -88h-175v26l315 683h77l316 -683v-26h-175zM435 241l-81 184l-79 -184h160zM223 739q-42 0 -70.5 25.5t-28.5 65.5q0 42 28.5 67t70.5 25q43 0 71.5 -25t28.5 -67q0 -40 -29 -65.5t-71 -25.5zM488 739q-42 0 -70.5 25.5t-28.5 65.5q0 42 28.5 67
t70.5 25q43 0 71 -25t28 -67q0 -41 -28 -66t-71 -25z" />
    <glyph glyph-name="Aring" unicode="&#xc5;" 
d="M435 241l-81 185l-79 -185h160zM355 752q17 0 29 10t12 27t-12 27t-29 10q-18 0 -30 -10t-12 -27t11.5 -27t30.5 -10zM534 0l-41 88h-276l-41 -88h-175v26l299 649q-36 14 -57.5 43.5t-21.5 70.5q0 54 38.5 87.5t95.5 33.5q56 0 94 -33.5t38 -87.5q0 -41 -21.5 -70.5
t-57.5 -43.5l301 -649v-26h-175z" />
    <glyph glyph-name="AE" unicode="&#xc6;" horiz-adv-x="866" 
d="M244 153q-55 -127 -67 -153h-176v27l313 673h478v-159h-228v-101h208v-159h-208v-122h237v-159h-404v153h-153zM399 542l-93 -227h91l3 227h-1z" />
    <glyph glyph-name="Ccedilla" unicode="&#xc7;" horiz-adv-x="786" 
d="M329 -78l19 75q-127 17 -213.5 109t-87.5 244q0 86 31 156t82.5 113t114.5 66t131 23q120 0 215 -67.5t114 -198.5h-176q-36 103 -153 103q-78 0 -126 -54t-48 -141q0 -80 48.5 -136.5t125.5 -57.5q59 0 100.5 29t55.5 84h176q-16 -124 -92.5 -192t-183.5 -81l-10 -45
q46 -7 62.5 -44t-1.5 -76q-17 -42 -58.5 -60t-87 -12.5t-81.5 28.5l8 93q16 -14 46.5 -13t36.5 20q5 19 -10.5 27t-37.5 8z" />
    <glyph glyph-name="Egrave" unicode="&#xc8;" horiz-adv-x="600" 
d="M526 700v-160h-259v-99h238v-159h-238v-123h268v-159h-446v700h437zM394 753h-125l-103 117v15l152 51l76 -167v-16z" />
    <glyph glyph-name="Eacute" unicode="&#xc9;" horiz-adv-x="600" 
d="M526 700v-160h-259v-99h238v-159h-238v-123h268v-159h-446v700h437zM361 751h-125v16l76 167l152 -51v-15z" />
    <glyph glyph-name="Ecircumflex" unicode="&#xca;" horiz-adv-x="600" 
d="M526 700v-160h-259v-99h238v-159h-238v-123h268v-159h-446v700h437zM504 750h-133l-65 76l-61 -76h-136v16l106 143h182l107 -143v-16z" />
    <glyph glyph-name="Edieresis" unicode="&#xcb;" horiz-adv-x="600" 
d="M526 700v-160h-259v-99h238v-159h-238v-123h268v-159h-446v700h437zM186 745q-41 0 -69 24.5t-28 63.5q0 40 28 65t69 25t69 -25t28 -65q0 -39 -28 -63.5t-69 -24.5zM444 745q-41 0 -69 24.5t-28 63.5q0 40 28 65t69 25t68.5 -25t27.5 -65q0 -39 -27.5 -63.5t-68.5 -24.5
z" />
    <glyph glyph-name="Igrave" unicode="&#xcc;" horiz-adv-x="414" 
d="M297 157h89v-157h-355v157h89v387h-82v156h341v-156h-82v-387zM279 751h-125l-103 117v15l152 51l76 -167v-16z" />
    <glyph glyph-name="Iacute" unicode="&#xcd;" horiz-adv-x="414" 
d="M297 157h89v-157h-355v157h89v387h-82v156h341v-156h-82v-387zM261 749h-125v16l76 167l152 -51v-15z" />
    <glyph glyph-name="Icircumflex" unicode="&#xce;" horiz-adv-x="414" 
d="M297 157h89v-157h-355v157h89v387h-82v156h341v-156h-82v-387zM405 751h-133l-65 76l-61 -76h-136v16l106 143h182l107 -143v-16z" />
    <glyph glyph-name="Idieresis" unicode="&#xcf;" horiz-adv-x="414" 
d="M297 157h89v-157h-355v157h89v387h-82v156h341v-156h-82v-387zM77 750q-42 0 -70.5 25.5t-28.5 65.5q0 42 28.5 67t70.5 25q43 0 71.5 -25t28.5 -67q0 -40 -29 -65.5t-71 -25.5zM342 750q-42 0 -70.5 25.5t-28.5 65.5q0 42 28.5 67t70.5 25q43 0 71 -25t28 -67
q0 -41 -28 -66t-71 -25z" />
    <glyph glyph-name="Eth" unicode="&#xd0;" horiz-adv-x="742" 
d="M5 427h84v273h264q109 0 189 -52t116 -130t36 -168t-36 -168t-116 -130t-189 -52h-264v270h-84v157zM268 537v-110h92v-157h-92v-107h85q53 0 92.5 27.5t57 69.5t17.5 90t-17.5 90t-57 69.5t-92.5 27.5h-85z" />
    <glyph glyph-name="Ntilde" unicode="&#xd1;" horiz-adv-x="780" 
d="M627 -1l-353 345v-344h-185v703h65l354 -346v343h183v-701h-64zM263 759q-37 14 -86 36q27 81 80 109.5t129 -1.5q2 -1 10.5 -4.5t12.5 -4.5t12.5 -4t13 -3.5t12 -1t12 1.5t9.5 5t9 9t6 14q10 -4 28.5 -12t33.5 -14.5t28 -12.5q-16 -74 -71.5 -107.5t-122.5 -6.5
q-3 1 -17 7.5t-22 9.5t-22 6t-23 1.5t-18 -8t-14 -19.5z" />
    <glyph glyph-name="Ograve" unicode="&#xd2;" horiz-adv-x="810" 
d="M764 349q0 -88 -31 -159t-81.5 -114.5t-115 -67t-131.5 -23.5t-131.5 23.5t-115 67t-81.5 114.5t-31 159t31 158.5t81.5 114t115 67t131.5 23.5t131.5 -23.5t115 -67t81.5 -114t31 -158.5zM230 349q0 -61 26 -105.5t65 -64.5t84.5 -20t84.5 20t65 64.5t26 105.5
q0 60 -26 104.5t-65 64t-84.5 19.5t-84.5 -19.5t-65 -64t-26 -104.5zM476 760h-125l-103 117v15l152 51l76 -167v-16z" />
    <glyph glyph-name="Oacute" unicode="&#xd3;" horiz-adv-x="810" 
d="M764 349q0 -88 -31 -159t-81.5 -114.5t-115 -67t-131.5 -23.5t-131.5 23.5t-115 67t-81.5 114.5t-31 159t31 158.5t81.5 114t115 67t131.5 23.5t131.5 -23.5t115 -67t81.5 -114t31 -158.5zM230 349q0 -61 26 -105.5t65 -64.5t84.5 -20t84.5 20t65 64.5t26 105.5
q0 60 -26 104.5t-65 64t-84.5 19.5t-84.5 -19.5t-65 -64t-26 -104.5zM444 766h-125v16l76 167l152 -51v-15z" />
    <glyph glyph-name="Ocircumflex" unicode="&#xd4;" horiz-adv-x="810" 
d="M764 349q0 -88 -31 -159t-81.5 -114.5t-115 -67t-131.5 -23.5t-131.5 23.5t-115 67t-81.5 114.5t-31 159t31 158.5t81.5 114t115 67t131.5 23.5t131.5 -23.5t115 -67t81.5 -114t31 -158.5zM230 349q0 -61 26 -105.5t65 -64.5t84.5 -20t84.5 20t65 64.5t26 105.5
q0 60 -26 104.5t-65 64t-84.5 19.5t-84.5 -19.5t-65 -64t-26 -104.5zM602 763h-133l-65 76l-61 -76h-136v16l106 143h182l107 -143v-16z" />
    <glyph glyph-name="Otilde" unicode="&#xd5;" horiz-adv-x="810" 
d="M764 349q0 -88 -31 -159t-81.5 -114.5t-115 -67t-131.5 -23.5t-131.5 23.5t-115 67t-81.5 114.5t-31 159t31 158.5t81.5 114t115 67t131.5 23.5t131.5 -23.5t115 -67t81.5 -114t31 -158.5zM230 349q0 -61 26 -105.5t65 -64.5t84.5 -20t84.5 20t65 64.5t26 105.5
q0 60 -26 104.5t-65 64t-84.5 19.5t-84.5 -19.5t-65 -64t-26 -104.5zM286 771q-37 14 -86 36q27 81 80 109.5t129 -1.5q2 -1 10.5 -4.5t12.5 -4.5t12.5 -4t13 -3.5t12 -1t12 1.5t9.5 5t9 9t6 14q10 -4 28.5 -12t33.5 -14.5t28 -12.5q-16 -74 -71.5 -107.5t-122.5 -6.5
q-3 1 -17 7.5t-22 9.5t-22 6t-23 1.5t-18 -8t-14 -19.5z" />
    <glyph glyph-name="Odieresis" unicode="&#xd6;" horiz-adv-x="810" 
d="M764 349q0 -88 -31 -159t-81.5 -114.5t-115 -67t-131.5 -23.5t-131.5 23.5t-115 67t-81.5 114.5t-31 159t31 158.5t81.5 114t115 67t131.5 23.5t131.5 -23.5t115 -67t81.5 -114t31 -158.5zM230 349q0 -61 26 -105.5t65 -64.5t84.5 -20t84.5 20t65 64.5t26 105.5
q0 60 -26 104.5t-65 64t-84.5 19.5t-84.5 -19.5t-65 -64t-26 -104.5zM272 750q-42 0 -70.5 25.5t-28.5 65.5q0 42 28.5 67t70.5 25q43 0 71.5 -25t28.5 -67q0 -40 -29 -65.5t-71 -25.5zM537 750q-42 0 -70.5 25.5t-28.5 65.5q0 42 28.5 67t70.5 25q43 0 71 -25t28 -67
q0 -41 -28 -66t-71 -25z" />
    <glyph glyph-name="Oslash" unicode="&#xd8;" horiz-adv-x="809" 
d="M659 617q104 -101 104 -265q0 -71 -20.5 -131t-55 -102.5t-81 -72.5t-98.5 -43.5t-107 -13t-106 15.5l-42 -69h-171v20l76 124q-112 100 -112 272q0 72 21 133.5t57 104t83.5 72t101 42.5t109.5 11.5t108 -18.5l41 67h170v-19zM231 352q0 -52 19 -92.5t50 -61.5t68.5 -31
t74.5 0t68 31t50 61.5t19 92.5t-19 93t-50 62t-68 31t-74.5 0t-68.5 -31t-50 -62t-19 -93z" />
    <glyph glyph-name="Ugrave" unicode="&#xd9;" horiz-adv-x="722" 
d="M360 151q43 0 74.5 22.5t31.5 62.5v464h171v-467q0 -111 -81.5 -177t-195.5 -66q-113 0 -195.5 66t-82.5 177v467h171v-464q0 -40 32 -62.5t75 -22.5zM432 753h-125l-103 117v15l152 51l76 -167v-16z" />
    <glyph glyph-name="Uacute" unicode="&#xda;" horiz-adv-x="722" 
d="M360 151q43 0 74.5 22.5t31.5 62.5v464h171v-467q0 -111 -81.5 -177t-195.5 -66q-113 0 -195.5 66t-82.5 177v467h171v-464q0 -40 32 -62.5t75 -22.5zM404 753h-125v16l76 167l152 -51v-15z" />
    <glyph glyph-name="Ucircumflex" unicode="&#xdb;" horiz-adv-x="722" 
d="M360 151q43 0 74.5 22.5t31.5 62.5v464h171v-467q0 -111 -81.5 -177t-195.5 -66q-113 0 -195.5 66t-82.5 177v467h171v-464q0 -40 32 -62.5t75 -22.5zM558 750h-133l-65 76l-61 -76h-136v16l106 143h182l107 -143v-16z" />
    <glyph glyph-name="Udieresis" unicode="&#xdc;" horiz-adv-x="722" 
d="M360 151q43 0 74.5 22.5t31.5 62.5v464h171v-467q0 -111 -81.5 -177t-195.5 -66q-113 0 -195.5 66t-82.5 177v467h171v-464q0 -40 32 -62.5t75 -22.5zM233 746q-42 0 -70.5 25.5t-28.5 65.5q0 42 28.5 67t70.5 25q43 0 71.5 -25t28.5 -67q0 -40 -29 -65.5t-71 -25.5z
M498 746q-42 0 -70.5 25.5t-28.5 65.5q0 42 28.5 67t70.5 25q43 0 71 -25t28 -67q0 -41 -28 -66t-71 -25z" />
    <glyph glyph-name="Yacute" unicode="&#xdd;" horiz-adv-x="665" 
d="M421 294v-294h-177v294l-235 379v27h193l127 -233h7l127 233h194v-27zM371 749h-125v16l76 167l152 -51v-15z" />
    <glyph glyph-name="Thorn" unicode="&#xde;" horiz-adv-x="694" 
d="M89 0v700h179v-89h129q54 0 99 -18t74.5 -48t50 -69.5t25 -82.5t0 -86t-25 -82t-50 -69t-74.5 -48t-99 -18h-129v-90h-179zM396 251q28 0 47.5 20.5t24.5 50t1 58.5t-23.5 50t-49.5 21h-128v-200h128z" />
    <glyph glyph-name="agrave" unicode="&#xe0;" 
d="M534 0l-41 88h-276l-41 -88h-175v26l315 683h77l316 -683v-26h-175zM434 242l-80 184l-78 -184h158zM424 751h-125l-103 117v15l152 51l76 -167v-16z" />
    <glyph glyph-name="aacute" unicode="&#xe1;" 
d="M534 0l-41 88h-276l-41 -88h-175v26l315 683h77l316 -683v-26h-175zM434 242l-80 184l-78 -184h158zM415 753h-125v16l76 167l152 -51v-15z" />
    <glyph glyph-name="acircumflex" unicode="&#xe2;" 
d="M534 0l-41 88h-276l-41 -88h-175v26l315 683h77l316 -683v-26h-175zM434 242l-80 184l-78 -184h158zM553 743h-133l-65 76l-61 -76h-136v16l106 143h182l107 -143v-16z" />
    <glyph glyph-name="atilde" unicode="&#xe3;" 
d="M534 0l-41 88h-276l-41 -88h-175v26l315 683h77l316 -683v-26h-175zM434 242l-80 184l-78 -184h158zM244 749q-37 14 -86 36q27 81 80 109.5t129 -1.5q2 -1 10.5 -4.5t12.5 -4.5t12.5 -4t13 -3.5t12 -1t12 1.5t9.5 5t9 9t6 14q10 -4 28.5 -12t33.5 -14.5t28 -12.5
q-16 -74 -71.5 -107.5t-122.5 -6.5q-3 1 -17 7.5t-22 9.5t-22 6t-23 1.5t-18 -8t-14 -19.5z" />
    <glyph glyph-name="adieresis" unicode="&#xe4;" 
d="M534 0l-41 88h-276l-41 -88h-175v26l315 683h77l316 -683v-26h-175zM434 242l-80 184l-78 -184h158zM223 732q-42 0 -70.5 25.5t-28.5 65.5q0 42 28.5 67t70.5 25q43 0 71.5 -25t28.5 -67q0 -40 -29 -65.5t-71 -25.5zM488 732q-42 0 -70.5 25.5t-28.5 65.5q0 42 28.5 67
t70.5 25q43 0 71 -25t28 -67q0 -41 -28 -66t-71 -25z" />
    <glyph glyph-name="aring" unicode="&#xe5;" 
d="M435 241l-81 185l-79 -185h160zM355 752q17 0 29 10t12 27t-12 27t-29 10q-18 0 -30 -10t-12 -27t11.5 -27t30.5 -10zM534 0l-41 88h-276l-41 -88h-175v26l299 649q-36 14 -57.5 43.5t-21.5 70.5q0 54 38.5 87.5t95.5 33.5q56 0 94 -33.5t38 -87.5q0 -41 -21.5 -70.5
t-57.5 -43.5l301 -649v-26h-175z" />
    <glyph glyph-name="ae" unicode="&#xe6;" horiz-adv-x="866" 
d="M244 153q-55 -127 -67 -153h-176v27l313 673h478v-159h-228v-101h208v-159h-208v-122h237v-159h-404v153h-153zM399 542l-93 -227h91l3 227h-1z" />
    <glyph glyph-name="ccedilla" unicode="&#xe7;" horiz-adv-x="786" 
d="M329 -78l19 75q-127 17 -213.5 109t-87.5 244q0 86 31 156t82.5 113t114.5 66t131 23q120 0 215 -67.5t114 -198.5h-176q-36 103 -153 103q-78 0 -126 -54t-48 -141q0 -80 48.5 -136.5t125.5 -57.5q59 0 100.5 29t55.5 84h176q-16 -124 -92.5 -192t-183.5 -81l-10 -45
q46 -7 62.5 -44t-1.5 -76q-17 -42 -58.5 -60t-87 -12.5t-81.5 28.5l8 93q16 -14 46.5 -13t36.5 20q5 19 -10.5 27t-37.5 8z" />
    <glyph glyph-name="egrave" unicode="&#xe8;" horiz-adv-x="600" 
d="M526 700v-160h-259v-99h238v-159h-238v-123h268v-159h-446v700h437zM395 748h-125l-103 117v15l152 51l76 -167v-16z" />
    <glyph glyph-name="eacute" unicode="&#xe9;" horiz-adv-x="600" 
d="M526 700v-160h-259v-99h238v-159h-238v-123h268v-159h-446v700h437zM352 746h-125v16l76 167l152 -51v-15z" />
    <glyph glyph-name="ecircumflex" unicode="&#xea;" horiz-adv-x="600" 
d="M526 700v-160h-259v-99h238v-159h-238v-123h268v-159h-446v700h437zM504 748h-133l-65 76l-61 -76h-136v16l106 143h182l107 -143v-16z" />
    <glyph glyph-name="edieresis" unicode="&#xeb;" horiz-adv-x="600" 
d="M526 700v-160h-259v-99h238v-159h-238v-123h268v-159h-446v700h437zM186 743q-40 0 -66.5 23.5t-26.5 61.5q0 40 26.5 63.5t66.5 23.5t67 -24t27 -63q0 -38 -27 -61.5t-67 -23.5zM435 743q-40 0 -66.5 23.5t-26.5 61.5q0 40 26.5 63.5t66.5 23.5q41 0 67 -23.5t26 -63.5
q0 -38 -26.5 -61.5t-66.5 -23.5z" />
    <glyph glyph-name="igrave" unicode="&#xec;" horiz-adv-x="414" 
d="M297 157h89v-157h-355v157h89v387h-82v156h341v-156h-82v-387zM276 746h-125l-103 117v15l152 51l76 -167v-16z" />
    <glyph glyph-name="iacute" unicode="&#xed;" horiz-adv-x="414" 
d="M297 157h89v-157h-355v157h89v387h-82v156h341v-156h-82v-387zM257 748h-125v16l76 167l152 -51v-15z" />
    <glyph glyph-name="icircumflex" unicode="&#xee;" horiz-adv-x="414" 
d="M297 157h89v-157h-355v157h89v387h-82v156h341v-156h-82v-387zM405 748h-133l-65 76l-61 -76h-136v16l106 143h182l107 -143v-16z" />
    <glyph glyph-name="idieresis" unicode="&#xef;" horiz-adv-x="414" 
d="M297 157h89v-157h-355v157h89v387h-82v156h341v-156h-82v-387zM75 742q-42 0 -70.5 25.5t-28.5 65.5q0 42 28.5 67t70.5 25q43 0 71.5 -25t28.5 -67q0 -40 -29 -65.5t-71 -25.5zM340 742q-42 0 -70.5 25.5t-28.5 65.5q0 42 28.5 67t70.5 25q43 0 71 -25t28 -67
q0 -41 -28 -66t-71 -25z" />
    <glyph glyph-name="eth" unicode="&#xf0;" horiz-adv-x="742" 
d="M5 427h84v273h264q109 0 189 -52t116 -130t36 -168t-36 -168t-116 -130t-189 -52h-264v270h-84v157zM268 537v-110h92v-157h-92v-107h85q53 0 92.5 27.5t57 69.5t17.5 90t-17.5 90t-57 69.5t-92.5 27.5h-85z" />
    <glyph glyph-name="ntilde" unicode="&#xf1;" horiz-adv-x="780" 
d="M627 -1l-353 345v-344h-185v703h65l354 -346v343h183v-701h-64zM278 757q-37 14 -86 36q27 81 80 109.5t129 -1.5q2 -1 10.5 -4.5t12.5 -4.5t12.5 -4t13 -3.5t12 -1t12 1.5t9.5 5t9 9t6 14q10 -4 28.5 -12t33.5 -14.5t28 -12.5q-16 -74 -71.5 -107.5t-122.5 -6.5
q-3 1 -17 7.5t-22 9.5t-22 6t-23 1.5t-18 -8t-14 -19.5z" />
    <glyph glyph-name="ograve" unicode="&#xf2;" horiz-adv-x="810" 
d="M764 349q0 -88 -31 -159t-81.5 -114.5t-115 -67t-131.5 -23.5t-131.5 23.5t-115 67t-81.5 114.5t-31 159t31 158.5t81.5 114t115 67t131.5 23.5t131.5 -23.5t115 -67t81.5 -114t31 -158.5zM230 349q0 -61 26 -105.5t65 -64.5t84.5 -20t84.5 20t65 64.5t26 105.5
q0 60 -26 104.5t-65 64t-84.5 19.5t-84.5 -19.5t-65 -64t-26 -104.5zM471 759h-125l-103 117v15l152 51l76 -167v-16z" />
    <glyph glyph-name="oacute" unicode="&#xf3;" horiz-adv-x="810" 
d="M764 349q0 -88 -31 -159t-81.5 -114.5t-115 -67t-131.5 -23.5t-131.5 23.5t-115 67t-81.5 114.5t-31 159t31 158.5t81.5 114t115 67t131.5 23.5t131.5 -23.5t115 -67t81.5 -114t31 -158.5zM230 349q0 -61 26 -105.5t65 -64.5t84.5 -20t84.5 20t65 64.5t26 105.5
q0 60 -26 104.5t-65 64t-84.5 19.5t-84.5 -19.5t-65 -64t-26 -104.5zM454 757h-125v16l76 167l152 -51v-15z" />
    <glyph glyph-name="ocircumflex" unicode="&#xf4;" horiz-adv-x="810" 
d="M764 349q0 -88 -31 -159t-81.5 -114.5t-115 -67t-131.5 -23.5t-131.5 23.5t-115 67t-81.5 114.5t-31 159t31 158.5t81.5 114t115 67t131.5 23.5t131.5 -23.5t115 -67t81.5 -114t31 -158.5zM230 349q0 -61 26 -105.5t65 -64.5t84.5 -20t84.5 20t65 64.5t26 105.5
q0 60 -26 104.5t-65 64t-84.5 19.5t-84.5 -19.5t-65 -64t-26 -104.5zM602 757h-133l-65 76l-61 -76h-136v16l106 143h182l107 -143v-16z" />
    <glyph glyph-name="otilde" unicode="&#xf5;" horiz-adv-x="810" 
d="M764 349q0 -88 -31 -159t-81.5 -114.5t-115 -67t-131.5 -23.5t-131.5 23.5t-115 67t-81.5 114.5t-31 159t31 158.5t81.5 114t115 67t131.5 23.5t131.5 -23.5t115 -67t81.5 -114t31 -158.5zM230 349q0 -61 26 -105.5t65 -64.5t84.5 -20t84.5 20t65 64.5t26 105.5
q0 60 -26 104.5t-65 64t-84.5 19.5t-84.5 -19.5t-65 -64t-26 -104.5zM293 761q-37 14 -86 36q27 81 80 109.5t129 -1.5q2 -1 10.5 -4.5t12.5 -4.5t12.5 -4t13 -3.5t12 -1t12 1.5t9.5 5t9 9t6 14q10 -4 28.5 -12t33.5 -14.5t28 -12.5q-16 -74 -71.5 -107.5t-122.5 -6.5
q-3 1 -17 7.5t-22 9.5t-22 6t-23 1.5t-18 -8t-14 -19.5z" />
    <glyph glyph-name="odieresis" unicode="&#xf6;" horiz-adv-x="810" 
d="M764 349q0 -88 -31 -159t-81.5 -114.5t-115 -67t-131.5 -23.5t-131.5 23.5t-115 67t-81.5 114.5t-31 159t31 158.5t81.5 114t115 67t131.5 23.5t131.5 -23.5t115 -67t81.5 -114t31 -158.5zM230 349q0 -61 26 -105.5t65 -64.5t84.5 -20t84.5 20t65 64.5t26 105.5
q0 60 -26 104.5t-65 64t-84.5 19.5t-84.5 -19.5t-65 -64t-26 -104.5zM272 748q-42 0 -70.5 25.5t-28.5 65.5q0 42 28.5 67t70.5 25q43 0 71.5 -25t28.5 -67q0 -40 -29 -65.5t-71 -25.5zM537 748q-42 0 -70.5 25.5t-28.5 65.5q0 42 28.5 67t70.5 25q43 0 71 -25t28 -67
q0 -41 -28 -66t-71 -25z" />
    <glyph glyph-name="oslash" unicode="&#xf8;" horiz-adv-x="809" 
d="M659 617q104 -101 104 -265q0 -71 -20.5 -131t-55 -102.5t-81 -72.5t-98.5 -43.5t-107 -13t-106 15.5l-42 -69h-171v20l76 124q-112 100 -112 272q0 72 21 133.5t57 104t83.5 72t101 42.5t109.5 11.5t108 -18.5l41 67h170v-19zM231 352q0 -52 19 -92.5t50 -61.5t68.5 -31
t74.5 0t68 31t50 61.5t19 92.5t-19 93t-50 62t-68 31t-74.5 0t-68.5 -31t-50 -62t-19 -93z" />
    <glyph glyph-name="ugrave" unicode="&#xf9;" horiz-adv-x="722" 
d="M360 151q43 0 74.5 22.5t31.5 62.5v464h173v-467q0 -111 -82.5 -177t-196.5 -66q-113 0 -195.5 66t-82.5 177v467h171v-464q0 -40 32 -62.5t75 -22.5zM432 749h-125l-103 117v15l152 51l76 -167v-16z" />
    <glyph glyph-name="uacute" unicode="&#xfa;" horiz-adv-x="722" 
d="M360 151q43 0 74.5 22.5t31.5 62.5v464h173v-467q0 -111 -82.5 -177t-196.5 -66q-113 0 -195.5 66t-82.5 177v467h171v-464q0 -40 32 -62.5t75 -22.5zM415 748h-125v16l76 167l152 -51v-15z" />
    <glyph glyph-name="ucircumflex" unicode="&#xfb;" horiz-adv-x="722" 
d="M360 151q43 0 74.5 22.5t31.5 62.5v464h173v-467q0 -111 -82.5 -177t-196.5 -66q-113 0 -195.5 66t-82.5 177v467h171v-464q0 -40 32 -62.5t75 -22.5zM558 746h-133l-65 76l-61 -76h-136v16l106 143h182l107 -143v-16z" />
    <glyph glyph-name="udieresis" unicode="&#xfc;" horiz-adv-x="722" 
d="M360 151q43 0 74.5 22.5t31.5 62.5v464h173v-467q0 -111 -82.5 -177t-196.5 -66q-113 0 -195.5 66t-82.5 177v467h171v-464q0 -40 32 -62.5t75 -22.5zM228 745q-42 0 -70.5 25.5t-28.5 65.5q0 42 28.5 67t70.5 25q43 0 71.5 -25t28.5 -67q0 -40 -29 -65.5t-71 -25.5z
M493 745q-42 0 -70.5 25.5t-28.5 65.5q0 42 28.5 67t70.5 25q43 0 71 -25t28 -67q0 -41 -28 -66t-71 -25z" />
    <glyph glyph-name="yacute" unicode="&#xfd;" horiz-adv-x="665" 
d="M421 294v-294h-177v294l-235 379v27h193l127 -233h7l127 233h194v-27zM373 746h-125v16l76 167l152 -51v-15z" />
    <glyph glyph-name="thorn" unicode="&#xfe;" horiz-adv-x="694" 
d="M89 0v700h179v-89h129q54 0 99 -18t74.5 -48t50 -69.5t25 -82.5t0 -86t-25 -82t-50 -69t-74.5 -48t-99 -18h-129v-90h-179zM396 251q28 0 47.5 20.5t24.5 50t1 58.5t-23.5 50t-49.5 21h-128v-200h128z" />
    <glyph glyph-name="ydieresis" unicode="&#xff;" horiz-adv-x="665" 
d="M421 294v-294h-177v294l-235 379v27h193l127 -233h7l127 233h194v-27zM200 747q-42 0 -70.5 25.5t-28.5 65.5q0 42 28.5 67t70.5 25q43 0 71.5 -25t28.5 -67q0 -40 -29 -65.5t-71 -25.5zM465 747q-42 0 -70.5 25.5t-28.5 65.5q0 42 28.5 67t70.5 25q43 0 71 -25t28 -67
q0 -41 -28 -66t-71 -25z" />
    <glyph glyph-name="dotlessi" unicode="&#x131;" horiz-adv-x="414" 
d="M297 157h89v-157h-355v157h89v387h-82v156h341v-156h-82v-387z" />
    <glyph glyph-name="Lslash" unicode="&#x141;" horiz-adv-x="556" 
d="M268 700v-236l43 27l78 -123l-121 -76v-131h254v-161h-434v170l-34 -22l-78 123l112 71v358h180z" />
    <glyph glyph-name="lslash" unicode="&#x142;" horiz-adv-x="556" 
d="M268 700v-236l43 27l78 -123l-121 -76v-131h254v-161h-434v170l-34 -22l-78 123l112 71v358h180z" />
    <glyph glyph-name="OE" unicode="&#x152;" horiz-adv-x="958" 
d="M494 0q-113 -26 -214 4t-167.5 120t-66.5 226q0 69 18.5 127.5t50.5 100t75.5 72.5t94 44.5t105 16.5t108.5 -11h386v-159h-249v-101h228v-159h-228v-122h258v-159h-399zM230 350q0 -45 15.5 -82t40.5 -59t57 -36t65.5 -13t64.5 9v360q-38 15 -81 8t-79 -27t-59.5 -62.5
t-23.5 -97.5z" />
    <glyph glyph-name="oe" unicode="&#x153;" horiz-adv-x="958" 
d="M494 0q-113 -26 -214 4t-167.5 120t-66.5 226q0 69 18.5 127.5t50.5 100t75.5 72.5t94 44.5t105 16.5t108.5 -11h386v-159h-249v-101h228v-159h-228v-122h258v-159h-399zM230 350q0 -45 15.5 -82t40.5 -59t57 -36t65.5 -13t64.5 9v360q-38 15 -81 8t-79 -27t-59.5 -62.5
t-23.5 -97.5z" />
    <glyph glyph-name="Scaron" unicode="&#x160;" horiz-adv-x="648" 
d="M213 214h-173q-1 -50 18 -91.5t51.5 -68t75 -45t89.5 -22.5t94.5 -0.5t90 21.5t75.5 44t52.5 66t19.5 87q0 51 -16.5 88t-39 57.5t-63.5 35t-72.5 19.5t-83.5 11q-57 6 -85.5 20.5t-25.5 50.5q2 30 33 47.5t66.5 18t65 -17t29.5 -50.5h170q1 86 -54 145t-134.5 72.5
t-158.5 0t-134 -72.5t-53 -145q1 -108 66 -157t188 -58q61 -4 94.5 -17t33.5 -47q0 -23 -22.5 -39t-55 -19t-64.5 1.5t-54.5 22t-22.5 42.5zM128 928h133l65 -76l61 76h136v-16l-106 -143h-182l-107 143v16z" />
    <glyph glyph-name="scaron" unicode="&#x161;" horiz-adv-x="648" 
d="M213 214h-173q-1 -63 30 -112.5t80.5 -75t110 -37t121.5 0.5t111 37t81.5 72.5t31.5 108.5q0 37 -8.5 66t-21 49t-35.5 35.5t-42.5 24.5t-52.5 16t-55 10t-60 7q-57 6 -85.5 20.5t-25.5 50.5q2 30 33 47.5t66.5 18t65 -17t29.5 -50.5h170q1 86 -54 145t-134.5 72.5
t-158.5 0t-134 -72.5t-53 -145q1 -108 66 -157t188 -58q31 -2 50.5 -4.5t39 -9t29 -18t9.5 -29.5q0 -23 -22.5 -39.5t-55 -20t-64.5 0.5t-54.5 21.5t-22.5 42.5zM119 921h133l65 -76l61 76h136v-16l-106 -143h-182l-107 143v16z" />
    <glyph glyph-name="Ydieresis" unicode="&#x178;" horiz-adv-x="665" 
d="M421 294v-294h-177v294l-235 379v27h193l127 -233h7l127 233h194v-27zM200 747q-42 0 -70.5 25.5t-28.5 65.5q0 42 28.5 67t70.5 25q43 0 71.5 -25t28.5 -67q0 -40 -29 -65.5t-71 -25.5zM465 747q-42 0 -70.5 25.5t-28.5 65.5q0 42 28.5 67t70.5 25q43 0 71 -25t28 -67
q0 -41 -28 -66t-71 -25z" />
    <glyph glyph-name="Zcaron" unicode="&#x17d;" horiz-adv-x="611" 
d="M579 700v-27l-287 -513h290v-160h-559v27l286 513h-260v160h530zM125 917h133l65 -76l61 76h136v-16l-106 -143h-182l-107 143v16z" />
    <glyph glyph-name="zcaron" unicode="&#x17e;" horiz-adv-x="611" 
d="M579 700v-27l-287 -513h290v-160h-559v27l286 513h-260v160h530zM126 907h133l65 -76l61 76h136v-16l-106 -143h-182l-107 143v16z" />
    <glyph glyph-name="circumflex" unicode="&#x2c6;" horiz-adv-x="481" 
d="M436 585h-133l-65 76l-61 -76h-136v16l106 143h182l107 -143v-16z" />
    <glyph glyph-name="caron" unicode="&#x2c7;" horiz-adv-x="485" 
d="M42 745h133l65 -76l61 76h136v-16l-106 -143h-182l-107 143v16z" />
    <glyph glyph-name="ring" unicode="&#x2da;" horiz-adv-x="364" 
d="M176 529q-57 0 -95.5 34t-38.5 89q0 54 38.5 87.5t95.5 33.5q56 0 94 -33.5t38 -87.5q0 -55 -38 -89t-94 -34zM176 611q19 0 32 11t13 30t-13 30t-32 11q-20 0 -33 -11t-13 -30t13 -30t33 -11z" />
    <glyph glyph-name="tilde" unicode="&#x2dc;" horiz-adv-x="479" 
d="M124 568q-37 14 -86 36q27 81 80 109.5t129 -1.5q2 -1 10.5 -4.5t12.5 -4.5t12.5 -4t13 -3.5t12 -1t12 1.5t9.5 5t9 9t6 14q10 -4 28.5 -12t33.5 -14.5t28 -12.5q-16 -74 -71.5 -107.5t-122.5 -6.5q-3 1 -17 7.5t-22 9.5t-22 6t-23 1.5t-18 -8t-14 -19.5z" />
    <glyph glyph-name="afii10023" unicode="&#x401;" horiz-adv-x="600" 
d="M526 700v-160h-259v-99h238v-159h-238v-123h268v-159h-446v700h437zM186 743q-40 0 -66.5 23.5t-26.5 61.5q0 40 26.5 63.5t66.5 23.5t67 -24t27 -63q0 -38 -27 -61.5t-67 -23.5zM435 743q-40 0 -66.5 23.5t-26.5 61.5q0 40 26.5 63.5t66.5 23.5q41 0 67 -23.5t26 -63.5
q0 -38 -26.5 -61.5t-66.5 -23.5z" />
    <glyph glyph-name="afii10052" unicode="&#x403;" horiz-adv-x="574" 
d="M271 540v-540h-182v700h436v-160h-254zM366 747h-125v16l76 167l152 -51v-15z" />
    <glyph glyph-name="afii10053" unicode="&#x404;" horiz-adv-x="774" 
d="M404 545q-60 0 -105 -32.5t-62 -88.5h230v-151h-227q19 -52 62.5 -84t101.5 -33q59 0 100.5 29t55.5 84h176q-12 -94 -64.5 -158.5t-120.5 -91t-147 -26.5q-68 0 -131 22.5t-114.5 65.5t-82.5 113t-31 156t31 156t82.5 113t114.5 66t131 23q120 0 215 -67.5t114 -198.5
h-176q-36 103 -153 103z" />
    <glyph glyph-name="afii10054" unicode="&#x405;" horiz-adv-x="648" 
d="M213 214q0 -25 22.5 -42.5t54.5 -21.5t64.5 -0.5t55 20t22.5 39.5q0 18 -9.5 29.5t-29 18t-39 9t-50.5 4.5q-123 9 -188 58t-66 157q-2 86 53 145t134 72.5t158.5 0t134.5 -72.5t54 -145h-170q0 33 -29.5 50.5t-65 17t-66.5 -18t-33 -47.5q-3 -36 25.5 -50.5t85.5 -20.5
q38 -4 60 -7t55 -10t52.5 -16t42.5 -24.5t35.5 -35.5t21 -49t8.5 -66q0 -61 -31.5 -108.5t-81.5 -72.5t-111 -37t-121.5 -0.5t-110 37t-80.5 75t-30 112.5h173z" />
    <glyph glyph-name="afii10055" unicode="&#x406;" horiz-adv-x="414" 
d="M297 157h89v-157h-355v157h89v387h-82v156h341v-156h-82v-387z" />
    <glyph glyph-name="afii10056" unicode="&#x407;" horiz-adv-x="414" 
d="M297 157h89v-157h-355v157h89v387h-82v156h341v-156h-82v-387zM77 750q-42 0 -70.5 25.5t-28.5 65.5q0 42 28.5 67t70.5 25q43 0 71.5 -25t28.5 -67q0 -40 -29 -65.5t-71 -25.5zM342 750q-42 0 -70.5 25.5t-28.5 65.5q0 42 28.5 67t70.5 25q43 0 71 -25t28 -67
q0 -41 -28 -66t-71 -25z" />
    <glyph glyph-name="afii10057" unicode="&#x408;" horiz-adv-x="662" 
d="M578 700v-467q0 -111 -78.5 -176t-191.5 -65q-112 0 -187 65t-75 176v91h169v-88q0 -40 26 -62t67 -22q40 0 63.5 21.5t23.5 62.5v305h-102v159h285z" />
    <glyph glyph-name="afii10061" unicode="&#x40c;" horiz-adv-x="708" 
d="M272 0h-182v700h182v-265h13q36 0 63.5 8t45 18.5t30 32.5t18.5 37.5t9 47.5t3.5 49t0.5 54v18h184q0 -138 -13 -194q-26 -109 -122 -170l190 -308v-28h-199l-154 271q-24 -4 -69 -4v-267zM408 750h-125v16l76 167l152 -51v-15z" />
    <glyph glyph-name="afii10062" unicode="&#x40e;" horiz-adv-x="665" 
d="M132 0v19l110 226l-236 428v27h200l132 -258h5l120 258h194v-27l-332 -673h-193zM259 919q4 -55 69 -55q66 0 74 55q35 -2 103 -10q-3 -84 -47.5 -127.5t-127.5 -43.5q-82 0 -127 44t-47 127q68 8 103 10z" />
    <glyph glyph-name="afii10145" unicode="&#x40f;" horiz-adv-x="762" 
d="M672 0h-199v-102h-183v102h-200v700h183v-535h216v535h183v-700z" />
    <glyph glyph-name="bg" unicode="&#x410;" 
d="M534 0l-41 88h-276l-41 -88h-175v26l315 683h77l316 -683v-26h-175zM435 241l-81 184l-79 -184h160z" />
    <glyph glyph-name="afii10018" unicode="&#x411;" horiz-adv-x="694" 
d="M396 297h-128v-137h128q35 0 55 21.5t19.5 47t-20 47t-54.5 21.5zM268 455h129q54 0 99 -15.5t74.5 -42t50 -60.5t25 -71.5t0 -75t-25 -72t-50 -61t-74.5 -42t-99 -15.5h-308v700h503v-160h-324v-85z" />
    <glyph glyph-name="afii10019" unicode="&#x412;" horiz-adv-x="686" 
d="M606 485q0 -32 -15 -66t-40 -55q84 -43 84 -143q-1 -96 -58 -158.5t-160 -62.5h-328v700h299q91 0 154.5 -62.5t63.5 -152.5zM404 278h-142v-119h143q34 0 47.5 29.5t-0.5 59.5t-48 30zM374 540h-112v-113h113q34 0 47.5 28.5t-0.5 56.5t-48 28z" />
    <glyph glyph-name="afii10020" unicode="&#x413;" horiz-adv-x="561" 
d="M271 540v-540h-182v700h436v-160h-254z" />
    <glyph glyph-name="afii10021" unicode="&#x414;" 
d="M150 -2v-77h-148v234h71l240 554h77l248 -554h73v-234h-147v77h-414zM351 410l-97 -253h198z" />
    <glyph glyph-name="afii10022" unicode="&#x415;" horiz-adv-x="600" 
d="M526 700v-160h-259v-99h238v-159h-238v-123h268v-159h-446v700h437z" />
    <glyph glyph-name="afii10024" unicode="&#x416;" horiz-adv-x="982" 
d="M398 0v267q-11 0 -37 4l-153 -271h-198v28l188 308q-33 21 -56.5 45t-38 54.5t-23 55t-12 64t-4 62.5t-0.5 69v14h183v-19v-51.5t3 -47.5t8.5 -46t16.5 -37t26.5 -32t40 -20t56.5 -11v264h182v-264q22 1 41 5.5t33 11.5t25.5 17t19.5 21.5t14 25t9 29t5.5 31.5t3 33t1 35
t-0.5 36v19h183v-14q0 -46 -0.5 -69.5t-4 -62.5t-12 -63.5t-23 -55t-38 -54.5t-56.5 -45l188 -308v-28h-198l-153 271q-26 -4 -37 -4v-267h-182z" />
    <glyph glyph-name="afii10025" unicode="&#x417;" horiz-adv-x="598" 
d="M222 524h-159q-4 92 59.5 140.5t161.5 48.5q109 0 169.5 -60t60.5 -143q0 -36 -16 -72t-45 -58q101 -54 101 -173q0 -97 -70 -158.5t-200 -61.5q-115 0 -180 62.5t-65 178.5h157q0 -41 24.5 -65.5t63.5 -24.5q42 0 66.5 25t24.5 54.5t-24.5 54.5t-66.5 25h-49v146h47
q41 0 58 30.5t0.5 61t-56.5 30.5q-62 0 -62 -41z" />
    <glyph glyph-name="afii10026" unicode="&#x418;" horiz-adv-x="782" 
d="M507 344l-353 -345h-64v701h183v-343l354 346h65v-703h-185v344z" />
    <glyph glyph-name="afii10027" unicode="&#x419;" horiz-adv-x="780" 
d="M159 -1l353 345v-344h185v703h-65l-354 -346v343h-183v-701h64zM351 919q4 -55 69 -55q66 0 74 55q35 -2 103 -10q-3 -84 -47.5 -127.5t-127.5 -43.5q-82 0 -127 44t-47 127q68 8 103 10z" />
    <glyph glyph-name="afii10028" unicode="&#x41a;" horiz-adv-x="708" 
d="M272 0h-182v700h182v-265h13q36 0 63.5 8t45 18.5t30 32.5t18.5 37.5t9 47.5t3.5 49t0.5 54v18h184q0 -138 -13 -194q-26 -109 -122 -170l190 -308v-28h-199l-154 271q-24 -4 -69 -4v-267z" />
    <glyph glyph-name="afii10029" unicode="&#x41b;" 
d="M354 410l-178 -410h-175v26l315 683h77l316 -683v-26h-175z" />
    <glyph glyph-name="afii10030" unicode="&#x41c;" horiz-adv-x="860" 
d="M428 398l279 304h64v-702h-183v312l-149 -156h-20l-148 156v-312h-183v702h66z" />
    <glyph glyph-name="afii10031" unicode="&#x41d;" horiz-adv-x="762" 
d="M672 700v-700h-183v281h-216v-281h-183v700h183v-254h216v254h183z" />
    <glyph glyph-name="afii10032" unicode="&#x41e;" horiz-adv-x="810" 
d="M764 349q0 -88 -31 -159t-81.5 -114.5t-115 -67t-131.5 -23.5t-131.5 23.5t-115 67t-81.5 114.5t-31 159t31 158.5t81.5 114t115 67t131.5 23.5t131.5 -23.5t115 -67t81.5 -114t31 -158.5zM230 349q0 -61 26 -105.5t65 -64.5t84.5 -20t84.5 20t65 64.5t26 105.5
q0 60 -26 104.5t-65 64t-84.5 19.5t-84.5 -19.5t-65 -64t-26 -104.5z" />
    <glyph glyph-name="afii10033" unicode="&#x41f;" horiz-adv-x="762" 
d="M672 700v-700h-183v535h-216v-535h-183v700h582z" />
    <glyph glyph-name="afii10034" unicode="&#x420;" horiz-adv-x="694" 
d="M268 0h-179v700h308q54 0 99 -18t74.5 -48t50 -69.5t25 -82.5t0 -86t-25 -82t-50 -69t-74.5 -48t-99 -18h-129v-179zM396 340q28 0 47.5 20.5t24.5 50t1 58.5t-23.5 50t-49.5 21h-40.5h-48h-39.5v-200h128z" />
    <glyph glyph-name="afii10035" unicode="&#x421;" horiz-adv-x="786" 
d="M47 350q0 86 31 156t82.5 113t114.5 66t131 23q120 0 215 -67.5t114 -198.5h-176q-36 103 -153 103q-78 0 -126 -54t-48 -141q0 -80 48.5 -136.5t125.5 -57.5q59 0 100.5 29t55.5 84h176q-12 -94 -64.5 -158.5t-120.5 -91t-147 -26.5q-68 0 -131 22.5t-114.5 65.5
t-82.5 113t-31 156z" />
    <glyph glyph-name="afii10036" unicode="&#x422;" horiz-adv-x="562" 
d="M192 540h-172v160h520v-160h-171v-540h-177v540z" />
    <glyph glyph-name="afii10037" unicode="&#x423;" horiz-adv-x="665" 
d="M132 0v19l110 226l-236 428v27h200l132 -258h5l120 258h194v-27l-332 -673h-193z" />
    <glyph glyph-name="afii10038" unicode="&#x424;" horiz-adv-x="922" 
d="M693 351q0 123 -149 129v-259q149 8 149 130zM229 351q0 -122 149 -130v259q-149 -6 -149 -129zM376 -3v59q-330 11 -330 295q0 282 329 293v59h172v-59q329 -11 329 -293q0 -284 -330 -295v-59h-170z" />
    <glyph glyph-name="afii10039" unicode="&#x425;" horiz-adv-x="673" 
d="M339 220h-6l-128 -220h-193v27l226 344l-202 302v27h186l111 -182h5l112 182h185v-27l-202 -302l227 -344v-27h-193z" />
    <glyph glyph-name="afii10040" unicode="&#x426;" horiz-adv-x="749" 
d="M89 0v700h183v-535h203v535h183v-545h71v-234h-147v79h-493z" />
    <glyph glyph-name="afii10041" unicode="&#x427;" horiz-adv-x="697" 
d="M608 0h-182v244h-36q-178 0 -254.5 90t-76.5 280v86h184v-86q0 -42 2 -67.5t10 -53.5t23.5 -43.5t43.5 -25.5t69 -10h35v286h182v-700z" />
    <glyph glyph-name="afii10042" unicode="&#x428;" horiz-adv-x="1066" 
d="M90 0v700h183v-535h169v535h183v-535h169v535h183v-700h-887z" />
    <glyph glyph-name="afii10043" unicode="&#x429;" horiz-adv-x="1066" 
d="M90 0v700h183v-535h169v535h183v-535h169v535h183v-545h71v-234h-147v79h-811z" />
    <glyph glyph-name="afii10044" unicode="&#x42a;" horiz-adv-x="721" 
d="M423 330h-128v-170h128q30 0 49.5 18t23.5 42.5t-1 49.5t-24.5 42.5t-47.5 17.5zM11 700h284v-209h129q54 0 99 -17t74.5 -45t50 -65t25 -77.5t0 -81t-25 -77.5t-50 -65.5t-74.5 -45.5t-99 -17h-308v540h-105v160z" />
    <glyph glyph-name="afii10045" unicode="&#x42b;" horiz-adv-x="1048" 
d="M89 700h179v-209h129q54 0 99 -17t74.5 -45t50 -65t25 -77.5t0 -81t-25 -77.5t-50 -65.5t-74.5 -45.5t-99 -17h-308v700zM396 330h-128v-170h39.5h48h40.5q30 0 49.5 18t23.5 42.5t-1 49.5t-24.5 42.5t-47.5 17.5zM780 0v700h179v-700h-179z" />
    <glyph glyph-name="afii10046" unicode="&#x42c;" horiz-adv-x="694" 
d="M268 700v-209h129q54 0 99 -17t74.5 -45t50 -65t25 -77.5t0 -81t-25 -77.5t-50 -65.5t-74.5 -45.5t-99 -17h-308v700h179zM396 330h-128v-170h39.5h48h40.5q30 0 49.5 18t23.5 42.5t-1 49.5t-24.5 42.5t-47.5 17.5z" />
    <glyph glyph-name="afii10047" unicode="&#x42d;" horiz-adv-x="776" 
d="M373 545q-117 0 -153 -103h-176q19 131 114 198.5t215 67.5q68 0 131 -23t114.5 -66t82.5 -113t31 -156t-31 -156t-82.5 -113t-114.5 -65.5t-131 -22.5q-79 0 -147 26.5t-120.5 91t-64.5 158.5h176q14 -55 55.5 -84t100.5 -29q58 1 101.5 33t62.5 84h-227v151h230
q-17 56 -62 88.5t-105 32.5z" />
    <glyph glyph-name="afii10048" unicode="&#x42e;" horiz-adv-x="1115" 
d="M1069 349q0 -83 -28 -151.5t-74 -112t-106 -69.5t-123.5 -30t-126.5 13t-115 52.5t-89 95t-49 134.5h-86v-281h-183v700h183v-254h91q16 70 55 125t91.5 87t114.5 46t124 8.5t120 -32.5t102.5 -70.5t71.5 -111t27 -149.5zM535 349q0 -61 26 -105.5t65 -64.5t84.5 -20
t84.5 20t65 64.5t26 105.5q0 60 -26 104.5t-65 64t-84.5 19.5t-84.5 -19.5t-65 -64t-26 -104.5z" />
    <glyph glyph-name="afii10049" unicode="&#x42f;" horiz-adv-x="701" 
d="M20 26l137 222q-43 29 -69 75t-32.5 95.5t6.5 100t42.5 90.5t82 65.5t118.5 25.5h307v-700h-179v206h-93l-120 -206h-200v26zM305 367h128v173h-40h-47.5h-40.5q-29 0 -48.5 -18t-23.5 -43.5t1 -51t24 -43t47 -17.5z" />
    <glyph glyph-name="afii10065" unicode="&#x430;" 
d="M534 0l-41 88h-276l-41 -88h-175v26l315 683h77l316 -683v-26h-175zM435 241l-81 184l-79 -184h160z" />
    <glyph glyph-name="afii10066" unicode="&#x431;" horiz-adv-x="694" 
d="M396 297h-128v-137h128q35 0 55 21.5t19.5 47t-20 47t-54.5 21.5zM268 455h129q54 0 99 -15.5t74.5 -42t50 -60.5t25 -71.5t0 -75t-25 -72t-50 -61t-74.5 -42t-99 -15.5h-308v700h503v-160h-324v-85z" />
    <glyph glyph-name="afii10067" unicode="&#x432;" horiz-adv-x="686" 
d="M606 485q0 -32 -15 -66t-40 -55q84 -43 84 -143q-1 -96 -58 -158.5t-160 -62.5h-328v700h299q91 0 154.5 -62.5t63.5 -152.5zM404 278h-142v-119h143q34 0 47.5 29.5t-0.5 59.5t-48 30zM374 540h-112v-113h113q34 0 47.5 28.5t-0.5 56.5t-48 28z" />
    <glyph glyph-name="afii10068" unicode="&#x433;" horiz-adv-x="561" 
d="M271 540v-540h-182v700h436v-160h-254z" />
    <glyph glyph-name="afii10069" unicode="&#x434;" 
d="M150 -2v-77h-148v234h71l240 554h77l248 -554h73v-234h-147v77h-414zM351 410l-97 -253h198z" />
    <glyph glyph-name="afii10070" unicode="&#x435;" horiz-adv-x="600" 
d="M526 700v-160h-259v-99h238v-159h-238v-123h268v-159h-446v700h437z" />
    <glyph glyph-name="afii10072" unicode="&#x436;" horiz-adv-x="982" 
d="M398 0v267q-11 0 -37 4l-153 -271h-198v28l188 308q-33 21 -56.5 45t-38 54.5t-23 55t-12 64t-4 62.5t-0.5 69v14h183v-19v-51.5t3 -47.5t8.5 -46t16.5 -37t26.5 -32t40 -20t56.5 -11v264h182v-264q22 1 41 5.5t33 11.5t25.5 17t19.5 21.5t14 25t9 29t5.5 31.5t3 33t1 35
t-0.5 36v19h183v-14q0 -46 -0.5 -69.5t-4 -62.5t-12 -63.5t-23 -55t-38 -54.5t-56.5 -45l188 -308v-28h-198l-153 271q-26 -4 -37 -4v-267h-182z" />
    <glyph glyph-name="afii10073" unicode="&#x437;" horiz-adv-x="598" 
d="M222 524h-159q-4 92 59.5 140.5t161.5 48.5q109 0 169.5 -60t60.5 -143q0 -36 -16 -72t-45 -58q101 -54 101 -173q0 -97 -70 -158.5t-200 -61.5q-115 0 -180 62.5t-65 178.5h157q0 -41 24.5 -65.5t63.5 -24.5q42 0 66.5 25t24.5 54.5t-24.5 54.5t-66.5 25h-49v146h47
q41 0 58 30.5t0.5 61t-56.5 30.5q-62 0 -62 -41z" />
    <glyph glyph-name="afii10074" unicode="&#x438;" horiz-adv-x="782" 
d="M507 344l-353 -345h-64v701h183v-343l354 346h65v-703h-185v344z" />
    <glyph glyph-name="afii10075" unicode="&#x439;" horiz-adv-x="780" 
d="M159 -1l353 345v-344h185v703h-65l-354 -346v343h-183v-701h64zM351 919q4 -55 69 -55q66 0 74 55q35 -2 103 -10q-3 -84 -47.5 -127.5t-127.5 -43.5q-82 0 -127 44t-47 127q68 8 103 10z" />
    <glyph glyph-name="afii10076" unicode="&#x43a;" horiz-adv-x="708" 
d="M272 0h-182v700h182v-265h13q36 0 63.5 8t45 18.5t30 32.5t18.5 37.5t9 47.5t3.5 49t0.5 54v18h184q0 -138 -13 -194q-26 -109 -122 -170l190 -308v-28h-199l-154 271q-24 -4 -69 -4v-267z" />
    <glyph glyph-name="afii10077" unicode="&#x43b;" 
d="M354 410l-178 -410h-175v26l315 683h77l316 -683v-26h-175z" />
    <glyph glyph-name="afii10078" unicode="&#x43c;" horiz-adv-x="860" 
d="M428 398l279 304h64v-702h-183v312l-149 -156h-20l-148 156v-312h-183v702h66z" />
    <glyph glyph-name="afii10079" unicode="&#x43d;" horiz-adv-x="762" 
d="M672 700v-700h-183v281h-216v-281h-183v700h183v-254h216v254h183z" />
    <glyph glyph-name="afii10080" unicode="&#x43e;" horiz-adv-x="810" 
d="M764 349q0 -88 -31 -159t-81.5 -114.5t-115 -67t-131.5 -23.5t-131.5 23.5t-115 67t-81.5 114.5t-31 159t31 158.5t81.5 114t115 67t131.5 23.5t131.5 -23.5t115 -67t81.5 -114t31 -158.5zM230 349q0 -61 26 -105.5t65 -64.5t84.5 -20t84.5 20t65 64.5t26 105.5
q0 60 -26 104.5t-65 64t-84.5 19.5t-84.5 -19.5t-65 -64t-26 -104.5z" />
    <glyph glyph-name="afii10081" unicode="&#x43f;" horiz-adv-x="762" 
d="M672 700v-700h-183v535h-216v-535h-183v700h582z" />
    <glyph glyph-name="afii10082" unicode="&#x440;" horiz-adv-x="694" 
d="M268 0h-179v700h308q54 0 99 -18t74.5 -48t50 -69.5t25 -82.5t0 -86t-25 -82t-50 -69t-74.5 -48t-99 -18h-129v-179zM396 340q28 0 47.5 20.5t24.5 50t1 58.5t-23.5 50t-49.5 21h-40.5h-48h-39.5v-200h128z" />
    <glyph glyph-name="afii10083" unicode="&#x441;" horiz-adv-x="786" 
d="M47 350q0 86 31 156t82.5 113t114.5 66t131 23q120 0 215 -67.5t114 -198.5h-176q-36 103 -153 103q-78 0 -126 -54t-48 -141q0 -80 48.5 -136.5t125.5 -57.5q59 0 100.5 29t55.5 84h176q-12 -94 -64.5 -158.5t-120.5 -91t-147 -26.5q-68 0 -131 22.5t-114.5 65.5
t-82.5 113t-31 156z" />
    <glyph glyph-name="afii10084" unicode="&#x442;" horiz-adv-x="562" 
d="M192 540h-172v160h520v-160h-171v-540h-177v540z" />
    <glyph glyph-name="afii10085" unicode="&#x443;" horiz-adv-x="665" 
d="M132 0v19l110 226l-236 428v27h200l132 -258h5l120 258h194v-27l-332 -673h-193z" />
    <glyph glyph-name="afii10086" unicode="&#x444;" horiz-adv-x="922" 
d="M693 351q0 123 -149 129v-259q149 8 149 130zM229 351q0 -122 149 -130v259q-149 -6 -149 -129zM376 -3v59q-330 11 -330 295q0 282 329 293v59h172v-59q329 -11 329 -293q0 -284 -330 -295v-59h-170z" />
    <glyph glyph-name="afii10087" unicode="&#x445;" horiz-adv-x="673" 
d="M339 220h-6l-128 -220h-193v27l226 344l-202 302v27h186l111 -182h5l112 182h185v-27l-202 -302l227 -344v-27h-193z" />
    <glyph glyph-name="afii10088" unicode="&#x446;" horiz-adv-x="749" 
d="M89 0v700h183v-535h203v535h183v-545h71v-234h-147v79h-493z" />
    <glyph glyph-name="afii10089" unicode="&#x447;" horiz-adv-x="697" 
d="M608 0h-182v244h-36q-178 0 -254.5 90t-76.5 280v86h184v-86q0 -42 2 -67.5t10 -53.5t23.5 -43.5t43.5 -25.5t69 -10h35v286h182v-700z" />
    <glyph glyph-name="afii10090" unicode="&#x448;" horiz-adv-x="1066" 
d="M90 0v700h183v-535h169v535h183v-535h169v535h183v-700h-887z" />
    <glyph glyph-name="afii10091" unicode="&#x449;" horiz-adv-x="1066" 
d="M90 0v700h183v-535h169v535h183v-535h169v535h183v-545h71v-234h-147v79h-811z" />
    <glyph glyph-name="afii10092" unicode="&#x44a;" horiz-adv-x="727" 
d="M429 330h-128v-170h128q30 0 49.5 18t23.5 42.5t-1 49.5t-24.5 42.5t-47.5 17.5zM17 700h284v-209h129q54 0 99 -17t74.5 -45t50 -65t25 -77.5t0 -81t-25 -77.5t-50 -65.5t-74.5 -45.5t-99 -17h-308v540h-105v160z" />
    <glyph glyph-name="afii10093" unicode="&#x44b;" horiz-adv-x="1048" 
d="M89 700h179v-209h129q54 0 99 -17t74.5 -45t50 -65t25 -77.5t0 -81t-25 -77.5t-50 -65.5t-74.5 -45.5t-99 -17h-308v700zM396 330h-128v-170h39.5h48h40.5q30 0 49.5 18t23.5 42.5t-1 49.5t-24.5 42.5t-47.5 17.5zM780 0v700h179v-700h-179z" />
    <glyph glyph-name="afii10094" unicode="&#x44c;" horiz-adv-x="694" 
d="M268 700v-209h129q54 0 99 -17t74.5 -45t50 -65t25 -77.5t0 -81t-25 -77.5t-50 -65.5t-74.5 -45.5t-99 -17h-308v700h179zM396 330h-128v-170h39.5h48h40.5q30 0 49.5 18t23.5 42.5t-1 49.5t-24.5 42.5t-47.5 17.5z" />
    <glyph glyph-name="afii10095" unicode="&#x44d;" horiz-adv-x="776" 
d="M373 545q-117 0 -153 -103h-176q19 131 114 198.5t215 67.5q68 0 131 -23t114.5 -66t82.5 -113t31 -156t-31 -156t-82.5 -113t-114.5 -65.5t-131 -22.5q-79 0 -147 26.5t-120.5 91t-64.5 158.5h176q14 -55 55.5 -84t100.5 -29q58 1 101.5 33t62.5 84h-227v151h230
q-17 56 -62 88.5t-105 32.5z" />
    <glyph glyph-name="afii10096" unicode="&#x44e;" horiz-adv-x="1115" 
d="M1069 349q0 -83 -28 -151.5t-74 -112t-106 -69.5t-123.5 -30t-126.5 13t-115 52.5t-89 95t-49 134.5h-86v-281h-183v700h183v-254h91q16 70 55 125t91.5 87t114.5 46t124 8.5t120 -32.5t102.5 -70.5t71.5 -111t27 -149.5zM535 349q0 -61 26 -105.5t65 -64.5t84.5 -20
t84.5 20t65 64.5t26 105.5q0 60 -26 104.5t-65 64t-84.5 19.5t-84.5 -19.5t-65 -64t-26 -104.5z" />
    <glyph glyph-name="gb" unicode="&#x44f;" horiz-adv-x="701" 
d="M20 26l137 222q-43 29 -69 75t-32.5 95.5t6.5 100t42.5 90.5t82 65.5t118.5 25.5h307v-700h-179v206h-93l-120 -206h-200v26zM305 367h128v173h-40h-47.5h-40.5q-29 0 -48.5 -18t-23.5 -43.5t1 -51t24 -43t47 -17.5z" />
    <glyph glyph-name="afii10071" unicode="&#x451;" horiz-adv-x="600" 
d="M526 700v-160h-259v-99h238v-159h-238v-123h268v-159h-446v700h437zM186 743q-40 0 -66.5 23.5t-26.5 61.5q0 40 26.5 63.5t66.5 23.5t67 -24t27 -63q0 -38 -27 -61.5t-67 -23.5zM435 743q-40 0 -66.5 23.5t-26.5 61.5q0 40 26.5 63.5t66.5 23.5q41 0 67 -23.5t26 -63.5
q0 -38 -26.5 -61.5t-66.5 -23.5z" />
    <glyph glyph-name="afii10100" unicode="&#x453;" horiz-adv-x="574" 
d="M271 540v-540h-182v700h436v-160h-254zM366 747h-125v16l76 167l152 -51v-15z" />
    <glyph glyph-name="afii10101" unicode="&#x454;" horiz-adv-x="774" 
d="M404 545q-60 0 -105 -32.5t-62 -88.5h230v-151h-227q19 -52 62.5 -84t101.5 -33q59 0 100.5 29t55.5 84h176q-12 -94 -64.5 -158.5t-120.5 -91t-147 -26.5q-68 0 -131 22.5t-114.5 65.5t-82.5 113t-31 156t31 156t82.5 113t114.5 66t131 23q120 0 215 -67.5t114 -198.5
h-176q-36 103 -153 103z" />
    <glyph glyph-name="afii10102" unicode="&#x455;" horiz-adv-x="648" 
d="M213 214q0 -25 22.5 -42.5t54.5 -21.5t64.5 -0.5t55 20t22.5 39.5q0 18 -9.5 29.5t-29 18t-39 9t-50.5 4.5q-123 9 -188 58t-66 157q-2 86 53 145t134 72.5t158.5 0t134.5 -72.5t54 -145h-170q0 33 -29.5 50.5t-65 17t-66.5 -18t-33 -47.5q-3 -36 25.5 -50.5t85.5 -20.5
q38 -4 60 -7t55 -10t52.5 -16t42.5 -24.5t35.5 -35.5t21 -49t8.5 -66q0 -61 -31.5 -108.5t-81.5 -72.5t-111 -37t-121.5 -0.5t-110 37t-80.5 75t-30 112.5h173z" />
    <glyph glyph-name="afii10103" unicode="&#x456;" horiz-adv-x="414" 
d="M297 157h89v-157h-355v157h89v387h-82v156h341v-156h-82v-387z" />
    <glyph glyph-name="afii10104" unicode="&#x457;" horiz-adv-x="414" 
d="M297 157h89v-157h-355v157h89v387h-82v156h341v-156h-82v-387zM77 750q-42 0 -70.5 25.5t-28.5 65.5q0 42 28.5 67t70.5 25q43 0 71.5 -25t28.5 -67q0 -40 -29 -65.5t-71 -25.5zM342 750q-42 0 -70.5 25.5t-28.5 65.5q0 42 28.5 67t70.5 25q43 0 71 -25t28 -67
q0 -41 -28 -66t-71 -25z" />
    <glyph glyph-name="afii10105" unicode="&#x458;" horiz-adv-x="662" 
d="M578 700v-467q0 -111 -78.5 -176t-191.5 -65q-112 0 -187 65t-75 176v91h169v-88q0 -40 26 -62t67 -22q40 0 63.5 21.5t23.5 62.5v305h-102v159h285z" />
    <glyph glyph-name="afii10109" unicode="&#x45c;" horiz-adv-x="708" 
d="M272 0h-182v700h182v-265h13q36 0 63.5 8t45 18.5t30 32.5t18.5 37.5t9 47.5t3.5 49t0.5 54v18h184q0 -138 -13 -194q-26 -109 -122 -170l190 -308v-28h-199l-154 271q-24 -4 -69 -4v-267zM408 750h-125v16l76 167l152 -51v-15z" />
    <glyph glyph-name="afii10110" unicode="&#x45e;" horiz-adv-x="665" 
d="M132 0v19l110 226l-236 428v27h200l132 -258h5l120 258h194v-27l-332 -673h-193zM259 919q4 -55 69 -55q66 0 74 55q35 -2 103 -10q-3 -84 -47.5 -127.5t-127.5 -43.5q-82 0 -127 44t-47 127q68 8 103 10z" />
    <glyph glyph-name="afii10193" unicode="&#x45f;" horiz-adv-x="762" 
d="M672 0h-199v-102h-183v102h-200v700h183v-535h216v535h183v-700z" />
    <glyph glyph-name="afii10050" unicode="&#x490;" horiz-adv-x="566" 
d="M525 540h-254v-540h-182v700h285v83h151v-243z" />
    <glyph glyph-name="afii10098" unicode="&#x491;" horiz-adv-x="566" 
d="M525 540h-254v-540h-182v700h285v83h151v-243z" />
    <glyph glyph-name="ellipsis" unicode="&#x2026;" horiz-adv-x="799" 
d="M133 -6q-43 0 -71.5 25t-28.5 66t28.5 67t71.5 26q41 0 69.5 -26t28.5 -67q0 -40 -28.5 -65.5t-69.5 -25.5zM390 -6q-43 0 -71.5 25t-28.5 66t28.5 67t71.5 26q41 0 69.5 -26t28.5 -67q0 -40 -28.5 -65.5t-69.5 -25.5zM648 -6q-43 0 -71.5 25t-28.5 66t28.5 67t71.5 26
q41 0 69.5 -26t28.5 -67q0 -40 -28.5 -65.5t-69.5 -25.5z" />
    </font>
</defs>
</svg>
